# Created by Kenney (www.kenney.nl)

mtllib template-wall-stairs.mtl

g template-wall-stairs

v -2 0.3 0 1 1 1
v -1.733333 0.3 2.980232E-08 1 1 1
v -2 2.097153E-12 0 1 1 1
v -1.4 0 -0.4 1 1 1
v -1.4 1.759298E-12 5.960464E-08 1 1 1
v -1.4 1.759298E-12 -0.6673718 1 1 1
v -1.4 0.3 -0.6673718 1 1 1
v -1.4 0.3 5.960464E-08 1 1 1
v -1.508 0.3 -0.7753718 1 1 1
v -1.508 1.759298E-12 -0.7753718 1 1 1
v -1.992 0.3 -0.7753718 1 1 1
v -1.992 2.097153E-12 -0.7753718 1 1 1
v -2.1 0.3 -0.6673719 1 1 1
v -2.1 2.097153E-12 -0.6673719 1 1 1
v -2 0 -0.4000001 1 1 1
v 2 0.2 5.960464E-08 1 1 1
v 2.1 0.2 -0.6673719 1 1 1
v 2 3.392984E-13 5.960464E-08 1 1 1
v 2.1 3.392984E-13 -0.6673719 1 1 1
v 1.992 3.392984E-13 -0.7753719 1 1 1
v 1.992 0.2 -0.7753719 1 1 1
v 1.508 6.771529E-13 -0.7753719 1 1 1
v 1.508 0.2 -0.7753719 1 1 1
v 1.4 0.2 -0.667372 1 1 1
v 1.4 6.771529E-13 -0.667372 1 1 1
v 1.4 0.2 0 1 1 1
v 1.4 6.771529E-13 0 1 1 1
v 1.4 0 -0.4000001 1 1 1
v 2 0 -0.4 1 1 1
v 2 4.7 -0.5999999 1 1 1
v 2 4.7 -0.3000001 1 1 1
v 1.5 4.7 -0.5999999 1 1 1
v 1.5 4.7 -0.3000001 1 1 1
v 1.5 3.9375 -0.2000001 1 1 1
v 1.5 4.6 -0.2000001 1 1 1
v 2 4.5 -0.2000001 1 1 1
v 2 4.6 -0.2000001 1 1 1
v 2 4.6 -0.6999999 1 1 1
v 1.5 4.6 -0.6999999 1 1 1
v 1.5 4.4 -0.6999999 1 1 1
v 2 4.4 -0.6999999 1 1 1
v 1.5 0.2 -0.5999999 1 1 1
v 2 0.2 -0.5999999 1 1 1
v 1.5 3.9375 -0.4 1 1 1
v 1.5 0.2 -0.4 1 1 1
v 2 4.5 -0.4 1 1 1
v 2 0.2 -0.4 1 1 1
v -0.1333333 2.1 -0.4 1 1 1
v 2 2.1 -0.4 1 1 1
v 2 4.5 -0.4 1 1 1
v 2 2.1 0 1 1 1
v -0.1333333 2.1 0 1 1 1
v 2 4.5 0 1 1 1
v -2 0 -0.4 1 1 1
v -1.555555 0.5 -0.4 1 1 1
v 2 0.5 -0.4 1 1 1
v 2 0.5 0 1 1 1
v 2 0 0 1 1 1
v -2 0 0 1 1 1
v -1.555555 0.5 0 1 1 1
v 1.5 0.5 -0.4000001 1 1 1
v 1.5 0.5 -0.6000001 1 1 1
v 1.4 0.5 -0.4000001 1 1 1
v 1.5 0.5 -0.7 1 1 1
v 1.4 0.5 -0.6000001 1 1 1
v 1.7 0.5 -0.7 1 1 1
v 1.7 0.5 -0.6000001 1 1 1
v 1.770711 0.5292893 -0.6000001 1 1 1
v 1.770711 0.5292893 -0.7 1 1 1
v 1.8 0.6 -0.7 1 1 1
v 1.8 0.6 -0.6000001 1 1 1
v 1.7 2.1 -0.7 1 1 1
v 1.7 2.1 -0.6000001 1 1 1
v 1.5 2.1 -0.7 1 1 1
v 1.5 2.1 -0.6000001 1 1 1
v 1.4 2.1 -0.6000001 1 1 1
v 1.5 2.1 -0.4000001 1 1 1
v 1.4 2.1 -0.4000001 1 1 1
v 1.770711 2.070711 -0.7 1 1 1
v 1.8 2 -0.7 1 1 1
v 1.770711 2.070711 -0.6000001 1 1 1
v 1.8 2 -0.6000001 1 1 1
v -1.555555 0.5 -0.4 1 1 1

vn -1.192093E-07 0 1
vn 1.192093E-07 0 -1
vn 1 0 1.192093E-07
vn 0.9238797 0 -0.3826834
vn 0.3826836 0 -0.9238796
vn -0.3826834 0 -0.9238797
vn -0.949759 0 -0.3129826
vn -0.9889594 0 0.1481871
vn -0.9238797 0 0.3826834
vn -1 0 -1.192093E-07
vn -0.3826836 0 0.9238796
vn 0.3826834 0 0.9238797
vn 0.949759 0 0.3129826
vn 0.9889594 0 -0.1481871
vn 0 1 0
vn 0 -1 0
vn 0.9889594 0 0.1481873
vn 0.9497591 0 -0.3129824
vn -0.9238796 0 -0.3826836
vn -0.9889594 0 -0.1481873
vn -0.9497591 0 0.3129824
vn 0.9238796 0 0.3826836
vn 0 0 1
vn 0 0.2952418 0.9554226
vn 0 0.7071068 0.7071068
vn 0 0 -1
vn 0 -0.2952418 -0.9554226
vn 0 -0.7071068 -0.7071068
vn 0 0.7071068 -0.7071068
vn 0 0.2952418 -0.9554226
vn 0 -0.01189718 -0.9999292
vn 0 -0.02380278 -0.9997167
vn 0 -0.2952418 0.9554226
vn 0 -0.7071068 0.7071068
vn 0 0.01189718 0.9999292
vn 0 0.02380278 0.9997167
vn -1 0 0
vn 1 0 0
vn -0.7474093 0.6643638 0
vn 0.7474093 -0.6643638 0
vn 0.1950903 -0.9807853 0
vn -0.1950903 0.9807853 0
vn 0.7071068 -0.7071068 0
vn -0.7071068 0.7071068 0
vn 0.9807853 -0.1950903 0
vn -0.9807853 0.1950903 0
vn 0.1950903 0.9807853 0
vn -0.1950903 -0.9807853 0
vn 0.7071068 0.7071068 0
vn 0.9807853 0.1950903 0
vn -0.7071068 -0.7071068 0
vn -0.9807853 -0.1950903 0
vn -0.9238795 0 -0.3826834
vn 0.9238795 0 0.3826834
vn -0.3826834 0 -0.9238795
vn 0.3826834 0 0.9238795

vt 0.84375 0.475
vt 0.84375 0.275
vt 0.84375 0.355
vt 0.84375 0.3414444
vt 0.84375 0.3532222
vt 0.84375 0.3514444
vt 0.84375 0.3496667
vt 0.84375 0.3816667
vt 0.84375 0.4527778
vt 0.09375 0.145
vt 0.09375 0.1464645
vt 0.09375 0.15
vt 0.09375 0.225
vt 0.09375 0.2235355
vt 0.09375 0.22

usemtl colormap

f 3/2/1 2/1/1 1/1/1
f 1/1/2 2/1/2 3/2/2
f 6/2/4 5/2/3 4/2/3
f 5/2/3 6/2/4 7/1/4
f 5/2/3 7/1/4 8/1/3
f 6/2/4 9/1/5 7/1/4
f 9/1/5 6/2/4 10/2/5
f 10/2/5 11/1/6 9/1/5
f 11/1/6 10/2/5 12/2/6
f 12/2/6 13/1/7 11/1/6
f 13/1/7 12/2/6 14/2/7
f 14/2/7 1/1/8 13/1/7
f 1/1/8 14/2/7 3/2/8
f 4/2/10 5/2/10 6/2/9
f 7/1/9 6/2/9 5/2/10
f 8/1/10 7/1/9 5/2/10
f 7/1/9 9/1/11 6/2/9
f 10/2/11 6/2/9 9/1/11
f 9/1/11 11/1/12 10/2/11
f 12/2/12 10/2/11 11/1/12
f 11/1/12 13/1/13 12/2/12
f 14/2/13 12/2/12 13/1/13
f 13/1/13 1/1/14 14/2/13
f 3/2/14 14/2/13 1/1/14
f 7/1/15 2/1/15 8/1/15
f 13/1/15 2/1/15 7/1/15
f 2/1/15 13/1/15 1/1/15
f 13/1/15 7/1/15 9/1/15
f 13/1/15 9/1/15 11/1/15
f 8/1/16 2/1/16 7/1/16
f 7/1/16 2/1/16 13/1/16
f 1/1/16 13/1/16 2/1/16
f 9/1/16 7/1/16 13/1/16
f 11/1/16 9/1/16 13/1/16
f 14/2/16 15/2/16 3/2/16
f 15/2/16 14/2/16 4/2/16
f 4/2/16 14/2/16 6/2/16
f 6/2/16 14/2/16 12/2/16
f 6/2/16 12/2/16 10/2/16
f 3/2/15 15/2/15 14/2/15
f 4/2/15 14/2/15 15/2/15
f 6/2/15 14/2/15 4/2/15
f 12/2/15 14/2/15 6/2/15
f 10/2/15 12/2/15 6/2/15
f 18/2/17 17/1/18 16/1/17
f 17/1/18 18/2/17 19/2/18
f 20/2/5 17/1/18 19/2/18
f 17/1/18 20/2/5 21/1/5
f 22/2/6 21/1/5 20/2/5
f 21/1/5 22/2/6 23/1/6
f 22/2/6 24/1/19 23/1/6
f 24/1/19 22/2/6 25/2/19
f 25/2/19 26/1/10 24/1/19
f 25/2/19 27/2/10 26/1/10
f 27/2/10 25/2/19 28/2/10
f 16/1/20 17/1/21 18/2/20
f 19/2/21 18/2/20 17/1/21
f 19/2/21 17/1/21 20/2/11
f 21/1/11 20/2/11 17/1/21
f 20/2/11 21/1/11 22/2/12
f 23/1/12 22/2/12 21/1/11
f 23/1/12 24/1/22 22/2/12
f 25/2/22 22/2/12 24/1/22
f 24/1/22 26/1/3 25/2/22
f 26/1/3 27/2/3 25/2/22
f 28/2/3 25/2/22 27/2/3
f 25/2/16 29/2/16 28/2/16
f 19/2/16 29/2/16 25/2/16
f 29/2/16 19/2/16 18/2/16
f 19/2/16 25/2/16 22/2/16
f 19/2/16 22/2/16 20/2/16
f 28/2/15 29/2/15 25/2/15
f 25/2/15 29/2/15 19/2/15
f 18/2/15 19/2/15 29/2/15
f 22/2/15 25/2/15 19/2/15
f 20/2/15 22/2/15 19/2/15
f 17/1/15 26/1/15 16/1/15
f 26/1/15 17/1/15 24/1/15
f 24/1/15 17/1/15 21/1/15
f 24/1/15 21/1/15 23/1/15
f 16/1/16 26/1/16 17/1/16
f 24/1/16 17/1/16 26/1/16
f 21/1/16 17/1/16 24/1/16
f 23/1/16 21/1/16 24/1/16
f 32/3/15 31/3/15 30/3/15
f 31/3/15 32/3/15 33/3/15
f 30/3/16 31/3/16 32/3/16
f 33/3/16 32/3/16 31/3/16
f 36/6/23 35/5/24 34/4/23
f 35/5/24 36/6/23 37/5/24
f 37/5/24 33/3/25 35/5/24
f 33/3/25 37/5/24 31/3/25
f 34/4/26 35/5/27 36/6/26
f 37/5/27 36/6/26 35/5/27
f 35/5/27 33/3/28 37/5/27
f 31/3/28 37/5/27 33/3/28
f 38/5/30 32/3/29 30/3/29
f 32/3/29 38/5/30 39/5/30
f 38/5/30 40/7/31 39/5/30
f 40/7/31 38/5/30 41/7/31
f 41/7/31 42/2/32 40/7/31
f 42/2/32 41/7/31 43/2/32
f 30/3/34 32/3/34 38/5/33
f 39/5/33 38/5/33 32/3/34
f 39/5/33 40/7/35 38/5/33
f 41/7/35 38/5/33 40/7/35
f 40/7/35 42/2/36 41/7/35
f 43/2/36 41/7/35 42/2/36
f 42/2/37 39/5/37 40/7/37
f 39/5/37 42/2/37 32/3/37
f 32/3/37 42/2/37 44/4/37
f 44/4/37 42/2/37 45/2/37
f 32/3/37 44/4/37 33/3/37
f 33/3/37 44/4/37 34/4/37
f 33/3/37 34/4/37 35/5/37
f 40/7/38 39/5/38 42/2/38
f 32/3/38 42/2/38 39/5/38
f 44/4/38 42/2/38 32/3/38
f 45/2/38 42/2/38 44/4/38
f 33/3/38 44/4/38 32/3/38
f 34/4/38 44/4/38 33/3/38
f 35/5/38 34/4/38 33/3/38
f 30/3/38 41/7/38 38/5/38
f 41/7/38 30/3/38 43/2/38
f 43/2/38 30/3/38 46/6/38
f 47/2/38 43/2/38 46/6/38
f 46/6/38 30/3/38 31/3/38
f 46/6/38 31/3/38 36/6/38
f 36/6/38 31/3/38 37/5/38
f 38/5/37 41/7/37 30/3/37
f 43/2/37 30/3/37 41/7/37
f 46/6/37 30/3/37 43/2/37
f 46/6/37 43/2/37 47/2/37
f 31/3/37 30/3/37 46/6/37
f 36/6/37 31/3/37 46/6/37
f 37/5/37 31/3/37 36/6/37
f 50/2/26 49/8/26 48/8/26
f 48/8/23 49/8/23 50/2/23
f 53/2/23 52/8/23 51/8/23
f 51/8/26 52/8/26 53/2/26
f 55/9/26 29/1/26 54/1/26
f 29/1/26 55/9/26 56/9/26
f 54/1/23 29/1/23 55/9/23
f 56/9/23 55/9/23 29/1/23
f 57/9/38 29/1/38 56/9/38
f 29/1/38 57/9/38 58/1/38
f 56/9/37 29/1/37 57/9/37
f 58/1/37 57/9/37 29/1/37
f 59/1/16 29/1/16 58/1/16
f 29/1/16 59/1/16 54/1/16
f 58/1/15 29/1/15 59/1/15
f 54/1/15 59/1/15 29/1/15
f 53/2/38 49/8/38 50/2/38
f 49/8/38 53/2/38 51/8/38
f 50/2/37 49/8/37 53/2/37
f 51/8/37 53/2/37 49/8/37
f 52/8/16 49/8/16 51/8/16
f 49/8/16 52/8/16 48/8/16
f 51/8/15 49/8/15 52/8/15
f 48/8/15 52/8/15 49/8/15
f 60/9/16 56/9/16 57/9/16
f 56/9/16 60/9/16 55/9/16
f 57/9/15 56/9/15 60/9/15
f 55/9/15 60/9/15 56/9/15
f 57/9/23 59/1/23 58/1/23
f 59/1/23 57/9/23 60/9/23
f 58/1/26 59/1/26 57/9/26
f 60/9/26 57/9/26 59/1/26
f 52/8/39 50/2/39 48/8/39
f 50/2/39 52/8/39 53/2/39
f 48/8/40 50/2/40 52/8/40
f 53/2/40 52/8/40 50/2/40
f 59/1/39 55/9/39 54/1/39
f 55/9/39 59/1/39 60/9/39
f 54/1/40 55/9/40 59/1/40
f 60/9/40 59/1/40 55/9/40
f 63/10/16 62/10/16 61/10/16
f 62/10/16 63/10/16 64/10/16
f 64/10/16 63/10/16 65/10/16
f 66/10/41 62/10/16 64/10/16
f 62/10/16 66/10/41 67/10/41
f 61/10/15 62/10/15 63/10/15
f 64/10/15 63/10/15 62/10/15
f 65/10/15 63/10/15 64/10/15
f 64/10/15 62/10/15 66/10/42
f 67/10/42 66/10/42 62/10/15
f 67/10/41 69/11/43 68/11/43
f 69/11/43 67/10/41 66/10/41
f 68/11/44 69/11/44 67/10/42
f 66/10/42 67/10/42 69/11/44
f 71/12/45 69/11/43 70/12/45
f 69/11/43 71/12/45 68/11/43
f 70/12/46 69/11/44 71/12/46
f 68/11/44 71/12/46 69/11/44
f 74/13/15 73/13/47 72/13/47
f 73/13/47 74/13/15 75/13/15
f 75/13/15 74/13/15 76/13/15
f 75/13/15 76/13/15 77/13/15
f 77/13/15 76/13/15 78/13/15
f 72/13/48 73/13/48 74/13/16
f 75/13/16 74/13/16 73/13/48
f 76/13/16 74/13/16 75/13/16
f 77/13/16 76/13/16 75/13/16
f 78/13/16 76/13/16 77/13/16
f 81/14/49 80/15/50 79/14/49
f 80/15/50 81/14/49 82/15/50
f 79/14/51 80/15/52 81/14/51
f 82/15/52 81/14/51 80/15/52
f 72/13/47 81/14/49 79/14/49
f 81/14/49 72/13/47 73/13/47
f 79/14/51 81/14/51 72/13/48
f 73/13/48 72/13/48 81/14/51
f 82/15/50 70/12/45 80/15/50
f 70/12/45 82/15/50 71/12/45
f 80/15/52 70/12/46 82/15/52
f 71/12/46 82/15/52 70/12/46
f 63/10/37 76/13/53 65/10/53
f 76/13/53 63/10/37 78/13/37
f 65/10/54 76/13/54 63/10/38
f 78/13/38 63/10/38 76/13/54
f 64/10/55 69/11/26 66/10/26
f 69/11/26 64/10/55 74/13/55
f 69/11/26 74/13/55 70/12/26
f 70/12/26 74/13/55 80/15/26
f 80/15/26 74/13/55 79/14/26
f 79/14/26 74/13/55 72/13/26
f 66/10/23 69/11/23 64/10/56
f 74/13/56 64/10/56 69/11/23
f 70/12/23 74/13/56 69/11/23
f 80/15/23 74/13/56 70/12/23
f 79/14/23 74/13/56 80/15/23
f 72/13/23 74/13/56 79/14/23
f 65/10/53 74/13/55 64/10/55
f 74/13/55 65/10/53 76/13/53
f 64/10/56 74/13/56 65/10/54
f 76/13/54 65/10/54 74/13/56
f 51/13/38 56/10/38 49/13/38
f 56/10/38 51/13/38 57/10/38
f 49/13/37 56/10/37 51/13/37
f 57/10/37 51/13/37 56/10/37
f 83/10/26 49/13/26 56/10/26
f 49/13/26 83/10/26 48/13/26
f 56/10/23 49/13/23 83/10/23
f 48/13/23 83/10/23 49/13/23
f 51/13/23 60/10/23 57/10/23
f 60/10/23 51/13/23 52/13/23
f 57/10/26 60/10/26 51/13/26
f 52/13/26 51/13/26 60/10/26
f 60/10/39 48/13/39 83/10/39
f 48/13/39 60/10/39 52/13/39
f 83/10/40 48/13/40 60/10/40
f 52/13/40 60/10/40 48/13/40

g template-wall-stairs




usemtl colormap

f 3/2/1 2/1/1 1/1/1
f 1/1/2 2/1/2 3/2/2
f 6/2/4 5/2/3 4/2/3
f 5/2/3 6/2/4 7/1/4
f 5/2/3 7/1/4 8/1/3
f 6/2/4 9/1/5 7/1/4
f 9/1/5 6/2/4 10/2/5
f 10/2/5 11/1/6 9/1/5
f 11/1/6 10/2/5 12/2/6
f 12/2/6 13/1/7 11/1/6
f 13/1/7 12/2/6 14/2/7
f 14/2/7 1/1/8 13/1/7
f 1/1/8 14/2/7 3/2/8
f 4/2/10 5/2/10 6/2/9
f 7/1/9 6/2/9 5/2/10
f 8/1/10 7/1/9 5/2/10
f 7/1/9 9/1/11 6/2/9
f 10/2/11 6/2/9 9/1/11
f 9/1/11 11/1/12 10/2/11
f 12/2/12 10/2/11 11/1/12
f 11/1/12 13/1/13 12/2/12
f 14/2/13 12/2/12 13/1/13
f 13/1/13 1/1/14 14/2/13
f 3/2/14 14/2/13 1/1/14
f 7/1/15 2/1/15 8/1/15
f 13/1/15 2/1/15 7/1/15
f 2/1/15 13/1/15 1/1/15
f 13/1/15 7/1/15 9/1/15
f 13/1/15 9/1/15 11/1/15
f 8/1/16 2/1/16 7/1/16
f 7/1/16 2/1/16 13/1/16
f 1/1/16 13/1/16 2/1/16
f 9/1/16 7/1/16 13/1/16
f 11/1/16 9/1/16 13/1/16
f 14/2/16 15/2/16 3/2/16
f 15/2/16 14/2/16 4/2/16
f 4/2/16 14/2/16 6/2/16
f 6/2/16 14/2/16 12/2/16
f 6/2/16 12/2/16 10/2/16
f 3/2/15 15/2/15 14/2/15
f 4/2/15 14/2/15 15/2/15
f 6/2/15 14/2/15 4/2/15
f 12/2/15 14/2/15 6/2/15
f 10/2/15 12/2/15 6/2/15
f 18/2/17 17/1/18 16/1/17
f 17/1/18 18/2/17 19/2/18
f 20/2/5 17/1/18 19/2/18
f 17/1/18 20/2/5 21/1/5
f 22/2/6 21/1/5 20/2/5
f 21/1/5 22/2/6 23/1/6
f 22/2/6 24/1/19 23/1/6
f 24/1/19 22/2/6 25/2/19
f 25/2/19 26/1/10 24/1/19
f 25/2/19 27/2/10 26/1/10
f 27/2/10 25/2/19 28/2/10
f 16/1/20 17/1/21 18/2/20
f 19/2/21 18/2/20 17/1/21
f 19/2/21 17/1/21 20/2/11
f 21/1/11 20/2/11 17/1/21
f 20/2/11 21/1/11 22/2/12
f 23/1/12 22/2/12 21/1/11
f 23/1/12 24/1/22 22/2/12
f 25/2/22 22/2/12 24/1/22
f 24/1/22 26/1/3 25/2/22
f 26/1/3 27/2/3 25/2/22
f 28/2/3 25/2/22 27/2/3
f 25/2/16 29/2/16 28/2/16
f 19/2/16 29/2/16 25/2/16
f 29/2/16 19/2/16 18/2/16
f 19/2/16 25/2/16 22/2/16
f 19/2/16 22/2/16 20/2/16
f 28/2/15 29/2/15 25/2/15
f 25/2/15 29/2/15 19/2/15
f 18/2/15 19/2/15 29/2/15
f 22/2/15 25/2/15 19/2/15
f 20/2/15 22/2/15 19/2/15
f 17/1/15 26/1/15 16/1/15
f 26/1/15 17/1/15 24/1/15
f 24/1/15 17/1/15 21/1/15
f 24/1/15 21/1/15 23/1/15
f 16/1/16 26/1/16 17/1/16
f 24/1/16 17/1/16 26/1/16
f 21/1/16 17/1/16 24/1/16
f 23/1/16 21/1/16 24/1/16
f 32/3/15 31/3/15 30/3/15
f 31/3/15 32/3/15 33/3/15
f 30/3/16 31/3/16 32/3/16
f 33/3/16 32/3/16 31/3/16
f 36/6/23 35/5/24 34/4/23
f 35/5/24 36/6/23 37/5/24
f 37/5/24 33/3/25 35/5/24
f 33/3/25 37/5/24 31/3/25
f 34/4/26 35/5/27 36/6/26
f 37/5/27 36/6/26 35/5/27
f 35/5/27 33/3/28 37/5/27
f 31/3/28 37/5/27 33/3/28
f 38/5/30 32/3/29 30/3/29
f 32/3/29 38/5/30 39/5/30
f 38/5/30 40/7/31 39/5/30
f 40/7/31 38/5/30 41/7/31
f 41/7/31 42/2/32 40/7/31
f 42/2/32 41/7/31 43/2/32
f 30/3/34 32/3/34 38/5/33
f 39/5/33 38/5/33 32/3/34
f 39/5/33 40/7/35 38/5/33
f 41/7/35 38/5/33 40/7/35
f 40/7/35 42/2/36 41/7/35
f 43/2/36 41/7/35 42/2/36
f 42/2/37 39/5/37 40/7/37
f 39/5/37 42/2/37 32/3/37
f 32/3/37 42/2/37 44/4/37
f 44/4/37 42/2/37 45/2/37
f 32/3/37 44/4/37 33/3/37
f 33/3/37 44/4/37 34/4/37
f 33/3/37 34/4/37 35/5/37
f 40/7/38 39/5/38 42/2/38
f 32/3/38 42/2/38 39/5/38
f 44/4/38 42/2/38 32/3/38
f 45/2/38 42/2/38 44/4/38
f 33/3/38 44/4/38 32/3/38
f 34/4/38 44/4/38 33/3/38
f 35/5/38 34/4/38 33/3/38
f 30/3/38 41/7/38 38/5/38
f 41/7/38 30/3/38 43/2/38
f 43/2/38 30/3/38 46/6/38
f 47/2/38 43/2/38 46/6/38
f 46/6/38 30/3/38 31/3/38
f 46/6/38 31/3/38 36/6/38
f 36/6/38 31/3/38 37/5/38
f 38/5/37 41/7/37 30/3/37
f 43/2/37 30/3/37 41/7/37
f 46/6/37 30/3/37 43/2/37
f 46/6/37 43/2/37 47/2/37
f 31/3/37 30/3/37 46/6/37
f 36/6/37 31/3/37 46/6/37
f 37/5/37 31/3/37 36/6/37
f 50/2/26 49/8/26 48/8/26
f 48/8/23 49/8/23 50/2/23
f 53/2/23 52/8/23 51/8/23
f 51/8/26 52/8/26 53/2/26
f 55/9/26 29/1/26 54/1/26
f 29/1/26 55/9/26 56/9/26
f 54/1/23 29/1/23 55/9/23
f 56/9/23 55/9/23 29/1/23
f 57/9/38 29/1/38 56/9/38
f 29/1/38 57/9/38 58/1/38
f 56/9/37 29/1/37 57/9/37
f 58/1/37 57/9/37 29/1/37
f 59/1/16 29/1/16 58/1/16
f 29/1/16 59/1/16 54/1/16
f 58/1/15 29/1/15 59/1/15
f 54/1/15 59/1/15 29/1/15
f 53/2/38 49/8/38 50/2/38
f 49/8/38 53/2/38 51/8/38
f 50/2/37 49/8/37 53/2/37
f 51/8/37 53/2/37 49/8/37
f 52/8/16 49/8/16 51/8/16
f 49/8/16 52/8/16 48/8/16
f 51/8/15 49/8/15 52/8/15
f 48/8/15 52/8/15 49/8/15
f 60/9/16 56/9/16 57/9/16
f 56/9/16 60/9/16 55/9/16
f 57/9/15 56/9/15 60/9/15
f 55/9/15 60/9/15 56/9/15
f 57/9/23 59/1/23 58/1/23
f 59/1/23 57/9/23 60/9/23
f 58/1/26 59/1/26 57/9/26
f 60/9/26 57/9/26 59/1/26
f 52/8/39 50/2/39 48/8/39
f 50/2/39 52/8/39 53/2/39
f 48/8/40 50/2/40 52/8/40
f 53/2/40 52/8/40 50/2/40
f 59/1/39 55/9/39 54/1/39
f 55/9/39 59/1/39 60/9/39
f 54/1/40 55/9/40 59/1/40
f 60/9/40 59/1/40 55/9/40
f 63/10/16 62/10/16 61/10/16
f 62/10/16 63/10/16 64/10/16
f 64/10/16 63/10/16 65/10/16
f 66/10/41 62/10/16 64/10/16
f 62/10/16 66/10/41 67/10/41
f 61/10/15 62/10/15 63/10/15
f 64/10/15 63/10/15 62/10/15
f 65/10/15 63/10/15 64/10/15
f 64/10/15 62/10/15 66/10/42
f 67/10/42 66/10/42 62/10/15
f 67/10/41 69/11/43 68/11/43
f 69/11/43 67/10/41 66/10/41
f 68/11/44 69/11/44 67/10/42
f 66/10/42 67/10/42 69/11/44
f 71/12/45 69/11/43 70/12/45
f 69/11/43 71/12/45 68/11/43
f 70/12/46 69/11/44 71/12/46
f 68/11/44 71/12/46 69/11/44
f 74/13/15 73/13/47 72/13/47
f 73/13/47 74/13/15 75/13/15
f 75/13/15 74/13/15 76/13/15
f 75/13/15 76/13/15 77/13/15
f 77/13/15 76/13/15 78/13/15
f 72/13/48 73/13/48 74/13/16
f 75/13/16 74/13/16 73/13/48
f 76/13/16 74/13/16 75/13/16
f 77/13/16 76/13/16 75/13/16
f 78/13/16 76/13/16 77/13/16
f 81/14/49 80/15/50 79/14/49
f 80/15/50 81/14/49 82/15/50
f 79/14/51 80/15/52 81/14/51
f 82/15/52 81/14/51 80/15/52
f 72/13/47 81/14/49 79/14/49
f 81/14/49 72/13/47 73/13/47
f 79/14/51 81/14/51 72/13/48
f 73/13/48 72/13/48 81/14/51
f 82/15/50 70/12/45 80/15/50
f 70/12/45 82/15/50 71/12/45
f 80/15/52 70/12/46 82/15/52
f 71/12/46 82/15/52 70/12/46
f 63/10/37 76/13/53 65/10/53
f 76/13/53 63/10/37 78/13/37
f 65/10/54 76/13/54 63/10/38
f 78/13/38 63/10/38 76/13/54
f 64/10/55 69/11/26 66/10/26
f 69/11/26 64/10/55 74/13/55
f 69/11/26 74/13/55 70/12/26
f 70/12/26 74/13/55 80/15/26
f 80/15/26 74/13/55 79/14/26
f 79/14/26 74/13/55 72/13/26
f 66/10/23 69/11/23 64/10/56
f 74/13/56 64/10/56 69/11/23
f 70/12/23 74/13/56 69/11/23
f 80/15/23 74/13/56 70/12/23
f 79/14/23 74/13/56 80/15/23
f 72/13/23 74/13/56 79/14/23
f 65/10/53 74/13/55 64/10/55
f 74/13/55 65/10/53 76/13/53
f 64/10/56 74/13/56 65/10/54
f 76/13/54 65/10/54 74/13/56
f 51/13/38 56/10/38 49/13/38
f 56/10/38 51/13/38 57/10/38
f 49/13/37 56/10/37 51/13/37
f 57/10/37 51/13/37 56/10/37
f 83/10/26 49/13/26 56/10/26
f 49/13/26 83/10/26 48/13/26
f 56/10/23 49/13/23 83/10/23
f 48/13/23 83/10/23 49/13/23
f 51/13/23 60/10/23 57/10/23
f 60/10/23 51/13/23 52/13/23
f 57/10/26 60/10/26 51/13/26
f 52/13/26 51/13/26 60/10/26
f 60/10/39 48/13/39 83/10/39
f 48/13/39 60/10/39 52/13/39
f 83/10/40 48/13/40 60/10/40
f 52/13/40 60/10/40 48/13/40

