# Created by Kenney (www.kenney.nl)

mtllib template-wall-half.mtl

g template-wall-half

v 1 4.05 -0.4 1 1 1
v 1 4.05 -4.470348E-08 1 1 1
v -1 4.05 -0.4 1 1 1
v -1 4.05 -4.470348E-08 1 1 1
v -1 1.9 -0.4 1 1 1
v 1 1.9 -0.4 1 1 1
v -1 1.9 -4.470348E-08 1 1 1
v 1 1 -4.470348E-08 1 1 1
v -1 1 -4.470348E-08 1 1 1
v 1 1.9 -4.470348E-08 1 1 1
v -1 0.2 0 1 1 1
v -1 1 0 1 1 1
v 1 0.2 0 1 1 1
v 1 1 0 1 1 1
v -0.9 0.2 -0.6 1 1 1
v 0.9 0.2 -0.6 1 1 1
v -0.9 1 -0.6 1 1 1
v 0.9 1 -0.6 1 1 1
v -1 0.2 -0.5 1 1 1
v -1 1 -0.5 1 1 1
v 1 1 -0.5 1 1 1
v 1 0.2 -0.5 1 1 1
v 1 1.8422E-17 -5.960464E-08 1 1 1
v -1 1.8422E-17 -5.960464E-08 1 1 1
v 1 0.2 -5.960464E-08 1 1 1
v -1 0.2 -5.960464E-08 1 1 1
v -1 1.8422E-17 -1.000998 1 1 1
v -1 0.2 -1.000998 1 1 1
v 1 0.2 -1.000998 1 1 1
v 1 1.8422E-17 -1.000998 1 1 1
v -1 1 -0.4 1 1 1
v 1 1 -0.4 1 1 1

vn 0 1 0
vn 0 -1 0
vn 0 0 -1
vn 0 0 1
vn -1 0 0
vn 1 0 0
vn -0.3826834 0 -0.9238795
vn 0.3826834 0 -0.9238795
vn 0.3826834 0 0.9238795
vn -0.3826834 0 0.9238795
vn -0.7071068 0 -0.7071068
vn 0.7071068 0 0.7071068
vn 0.7071068 0 -0.7071068
vn -0.7071068 0 0.7071068

vt 0.84375 0.475
vt 0.84375 0.3340164
vt 0.84375 0.275
vt 0.09375 0.145
vt 0.09375 0.225
vt 0.09375 0.075
vt 0.09375 0.175
vt 0.09375 0.325
vt 0.09375 0.425

usemtl colormap

f 3/1/1 2/1/1 1/1/1
f 2/1/1 3/1/1 4/1/1
f 1/1/2 2/1/2 3/1/2
f 4/1/2 3/1/2 2/1/2
f 3/1/3 6/2/3 5/2/3
f 6/2/3 3/1/3 1/1/3
f 5/2/4 6/2/4 3/1/4
f 1/1/4 3/1/4 6/2/4
f 5/2/5 4/1/5 3/1/5
f 4/1/5 5/2/5 7/2/5
f 3/1/6 4/1/6 5/2/6
f 7/2/6 5/2/6 4/1/6
f 10/2/4 9/3/4 8/3/4
f 9/3/4 10/2/4 7/2/4
f 7/2/4 10/2/4 2/1/4
f 7/2/4 2/1/4 4/1/4
f 8/3/3 9/3/3 10/2/3
f 7/2/3 10/2/3 9/3/3
f 2/1/3 10/2/3 7/2/3
f 4/1/3 2/1/3 7/2/3
f 2/1/6 6/2/6 1/1/6
f 6/2/6 2/1/6 10/2/6
f 1/1/5 6/2/5 2/1/5
f 10/2/5 2/1/5 6/2/5
f 13/4/4 12/5/4 11/4/4
f 12/5/4 13/4/4 14/5/4
f 11/4/3 12/5/3 13/4/3
f 14/5/3 13/4/3 12/5/3
f 17/5/7 16/4/8 15/4/7
f 16/4/8 17/5/7 18/5/8
f 15/4/9 16/4/10 17/5/9
f 18/5/10 17/5/9 16/4/10
f 19/4/11 17/5/7 15/4/7
f 17/5/7 19/4/11 20/5/11
f 15/4/9 17/5/9 19/4/12
f 20/5/12 19/4/12 17/5/9
f 21/5/13 16/4/8 18/5/8
f 16/4/8 21/5/13 22/4/13
f 18/5/10 16/4/10 21/5/14
f 22/4/14 21/5/14 16/4/10
f 18/5/1 14/5/1 21/5/1
f 14/5/1 18/5/1 12/5/1
f 12/5/1 18/5/1 17/5/1
f 12/5/1 17/5/1 20/5/1
f 21/5/2 14/5/2 18/5/2
f 12/5/2 18/5/2 14/5/2
f 17/5/2 18/5/2 12/5/2
f 20/5/2 17/5/2 12/5/2
f 11/4/5 20/5/5 19/4/5
f 20/5/5 11/4/5 12/5/5
f 19/4/6 20/5/6 11/4/6
f 12/5/6 11/4/6 20/5/6
f 14/5/6 22/4/6 21/5/6
f 22/4/6 14/5/6 13/4/6
f 21/5/5 22/4/5 14/5/5
f 13/4/5 14/5/5 22/4/5
f 25/7/4 24/6/4 23/6/4
f 24/6/4 25/7/4 26/7/4
f 23/6/3 24/6/3 25/7/3
f 26/7/3 25/7/3 24/6/3
f 24/6/5 28/7/5 27/6/5
f 28/7/5 24/6/5 26/7/5
f 27/6/6 28/7/6 24/6/6
f 26/7/6 24/6/6 28/7/6
f 25/7/6 30/6/6 29/7/6
f 30/6/6 25/7/6 23/6/6
f 29/7/5 30/6/5 25/7/5
f 23/6/5 25/7/5 30/6/5
f 28/7/3 30/6/3 27/6/3
f 30/6/3 28/7/3 29/7/3
f 27/6/4 30/6/4 28/7/4
f 29/7/4 28/7/4 30/6/4
f 28/7/1 25/7/1 29/7/1
f 25/7/1 28/7/1 26/7/1
f 29/7/2 25/7/2 28/7/2
f 26/7/2 28/7/2 25/7/2
f 24/6/2 30/6/2 23/6/2
f 30/6/2 24/6/2 27/6/2
f 23/6/1 30/6/1 24/6/1
f 27/6/1 24/6/1 30/6/1
f 5/9/3 32/8/3 31/8/3
f 32/8/3 5/9/3 6/9/3
f 31/8/4 32/8/4 5/9/4
f 6/9/4 5/9/4 32/8/4
f 9/8/5 5/9/5 31/8/5
f 5/9/5 9/8/5 7/9/5
f 31/8/6 5/9/6 9/8/6
f 7/9/6 9/8/6 5/9/6
f 10/9/6 32/8/6 6/9/6
f 32/8/6 10/9/6 8/8/6
f 6/9/5 32/8/5 10/9/5
f 8/8/5 10/9/5 32/8/5

g template-wall-half




usemtl colormap

f 3/1/1 2/1/1 1/1/1
f 2/1/1 3/1/1 4/1/1
f 1/1/2 2/1/2 3/1/2
f 4/1/2 3/1/2 2/1/2
f 3/1/3 6/2/3 5/2/3
f 6/2/3 3/1/3 1/1/3
f 5/2/4 6/2/4 3/1/4
f 1/1/4 3/1/4 6/2/4
f 5/2/5 4/1/5 3/1/5
f 4/1/5 5/2/5 7/2/5
f 3/1/6 4/1/6 5/2/6
f 7/2/6 5/2/6 4/1/6
f 10/2/4 9/3/4 8/3/4
f 9/3/4 10/2/4 7/2/4
f 7/2/4 10/2/4 2/1/4
f 7/2/4 2/1/4 4/1/4
f 8/3/3 9/3/3 10/2/3
f 7/2/3 10/2/3 9/3/3
f 2/1/3 10/2/3 7/2/3
f 4/1/3 2/1/3 7/2/3
f 2/1/6 6/2/6 1/1/6
f 6/2/6 2/1/6 10/2/6
f 1/1/5 6/2/5 2/1/5
f 10/2/5 2/1/5 6/2/5
f 13/4/4 12/5/4 11/4/4
f 12/5/4 13/4/4 14/5/4
f 11/4/3 12/5/3 13/4/3
f 14/5/3 13/4/3 12/5/3
f 17/5/7 16/4/8 15/4/7
f 16/4/8 17/5/7 18/5/8
f 15/4/9 16/4/10 17/5/9
f 18/5/10 17/5/9 16/4/10
f 19/4/11 17/5/7 15/4/7
f 17/5/7 19/4/11 20/5/11
f 15/4/9 17/5/9 19/4/12
f 20/5/12 19/4/12 17/5/9
f 21/5/13 16/4/8 18/5/8
f 16/4/8 21/5/13 22/4/13
f 18/5/10 16/4/10 21/5/14
f 22/4/14 21/5/14 16/4/10
f 18/5/1 14/5/1 21/5/1
f 14/5/1 18/5/1 12/5/1
f 12/5/1 18/5/1 17/5/1
f 12/5/1 17/5/1 20/5/1
f 21/5/2 14/5/2 18/5/2
f 12/5/2 18/5/2 14/5/2
f 17/5/2 18/5/2 12/5/2
f 20/5/2 17/5/2 12/5/2
f 11/4/5 20/5/5 19/4/5
f 20/5/5 11/4/5 12/5/5
f 19/4/6 20/5/6 11/4/6
f 12/5/6 11/4/6 20/5/6
f 14/5/6 22/4/6 21/5/6
f 22/4/6 14/5/6 13/4/6
f 21/5/5 22/4/5 14/5/5
f 13/4/5 14/5/5 22/4/5
f 25/7/4 24/6/4 23/6/4
f 24/6/4 25/7/4 26/7/4
f 23/6/3 24/6/3 25/7/3
f 26/7/3 25/7/3 24/6/3
f 24/6/5 28/7/5 27/6/5
f 28/7/5 24/6/5 26/7/5
f 27/6/6 28/7/6 24/6/6
f 26/7/6 24/6/6 28/7/6
f 25/7/6 30/6/6 29/7/6
f 30/6/6 25/7/6 23/6/6
f 29/7/5 30/6/5 25/7/5
f 23/6/5 25/7/5 30/6/5
f 28/7/3 30/6/3 27/6/3
f 30/6/3 28/7/3 29/7/3
f 27/6/4 30/6/4 28/7/4
f 29/7/4 28/7/4 30/6/4
f 28/7/1 25/7/1 29/7/1
f 25/7/1 28/7/1 26/7/1
f 29/7/2 25/7/2 28/7/2
f 26/7/2 28/7/2 25/7/2
f 24/6/2 30/6/2 23/6/2
f 30/6/2 24/6/2 27/6/2
f 23/6/1 30/6/1 24/6/1
f 27/6/1 24/6/1 30/6/1
f 5/9/3 32/8/3 31/8/3
f 32/8/3 5/9/3 6/9/3
f 31/8/4 32/8/4 5/9/4
f 6/9/4 5/9/4 32/8/4
f 9/8/5 5/9/5 31/8/5
f 5/9/5 9/8/5 7/9/5
f 31/8/6 5/9/6 9/8/6
f 7/9/6 9/8/6 5/9/6
f 10/9/6 32/8/6 6/9/6
f 32/8/6 10/9/6 8/8/6
f 6/9/5 32/8/5 10/9/5
f 8/8/5 10/9/5 32/8/5

